<?xml version="1.0" encoding="UTF-8" standalone="no"?>
<svg width="90px" height="18px" viewBox="0 0 90 18" version="1.1" xmlns="http://www.w3.org/2000/svg" xmlns:xlink="http://www.w3.org/1999/xlink">
    <!-- Generator: Sketch 3.6.1 (26313) - http://www.bohemiancoding.com/sketch -->
    <title>Logo</title>
    <desc>Created with Sketch.</desc>
    <defs>
        <path id="path-1" d="M0,17.4183825 L89.8597153,17.4183825 L89.8597153,0.0606417763 L0,0.0606417763 L0,17.4183825 Z"></path>
    </defs>
    <g id="Page-1" stroke="none" stroke-width="1" fill="none" fill-rule="evenodd">
        <g id="Home" transform="translate(-51.000000, -54.000000)">
            <g id="Logo" transform="translate(51.000000, 54.000000)">
                <g id="Group-13" transform="translate(0.000000, 0.261760)">
                    <mask id="mask-2" fill="white">
                        <use xlink:href="#path-1"></use>
                    </mask>
                    <g id="Clip-10"></g>
                    <path d="M21.250153,10.180722 C21.250153,8.0260036 19.9622883,6.35254862 17.4281957,6.35254862 L15.1644235,6.35254862 L15.1644235,14.0295394 L17.4073772,14.0295394 C19.8376975,14.0295394 21.250153,12.2515742 21.250153,10.180722 L21.250153,10.180722 Z M11.591968,17.1674288 L11.591968,3.21498183 L17.4073772,3.21498183 C21.7693345,3.21498183 24.9058826,5.85064116 24.9058826,10.180722 C24.9058826,14.5108029 21.7693345,17.1674288 17.4281957,17.1674288 L11.591968,17.1674288 L11.591968,17.1674288 Z" id="Fill-2" fill="#FFFFFF" mask="url(#mask-2)"></path>
                    <path d="M40.6954057,9.95044456 C40.6954057,5.64133026 43.935726,2.73375063 48.1935907,2.73375063 C51.5376833,2.73375063 53.3447295,4.63719276 54.2376833,6.45709118 L51.163911,7.94216957 C50.7068648,6.83352178 49.5230925,5.91325057 48.1935907,5.91325057 C45.9298185,5.91325057 44.3303167,7.64960526 44.3303167,9.95044456 C44.3303167,12.2306399 45.9298185,13.9876386 48.1935907,13.9876386 C49.5230925,13.9876386 50.7068648,13.0673674 51.163911,11.9587196 L54.2376833,13.4228314 C53.3447295,15.2007966 51.5376833,17.1674611 48.1935907,17.1674611 C43.935726,17.1674611 40.6954057,14.2385923 40.6954057,9.95044456" id="Fill-7" fill="#FFFFFF" mask="url(#mask-2)"></path>
                    <path d="M26.37,11.519486 L26.37,3.21478829 L30.004911,3.21478829 L30.004911,11.3940091 C30.004911,13.0464975 31.001637,14.2386891 32.9335943,14.2386891 C34.8440925,14.2386891 35.8411388,13.0464975 35.8411388,11.3940091 L35.8411388,3.21478829 L39.4552313,3.21478829 L39.4552313,11.4985194 C39.4552313,14.9709063 37.3781851,17.4185116 32.9335943,17.4185116 C28.4886833,17.4185116 26.37,14.9499397 26.37,11.519486" id="Fill-4" fill="#FFFFFF" mask="url(#mask-2)"></path>
                    <path d="M55.7730961,16.9161525 L59.3455516,16.9161525 L59.3455516,2.96370553 L55.7730961,2.96370553 L55.7730961,16.9161525 Z" id="Fill-9" fill="#FFFFFF" mask="url(#mask-2)"></path>
                    <path d="M64.9322456,16.9162815 L64.9322456,6.10172392 L61.048153,6.10172392 L61.048153,2.96383456 L72.3679751,2.96383456 L72.3679751,6.10172392 L68.5047011,6.10172392 L68.5047011,16.9162815 L64.9322456,16.9162815 Z" id="Fill-11" fill="#FFFFFF" mask="url(#mask-2)"></path>
                    <path d="M78.8108221,16.9162815 L78.8108221,11.2891763 L73.555911,2.96383456 L77.5854128,2.96383456 L80.5970498,8.10967635 L85.809363,0.0607708013 L89.8596833,0.0607708013 L82.3832776,11.2891763 L82.3832776,16.9162815 L78.8108221,16.9162815 Z" id="Fill-12" fill="#FFFFFF" mask="url(#mask-2)"></path>
                    <path d="M0,3.2148528 L0,17.1672998 L10.1568683,17.1672998 L10.1568683,14.029733 L3.57245552,14.029733 L3.57245552,11.6656714 L10.0111388,11.6656714 L10.0111388,8.5281046 L3.57245552,8.5281046 L3.57245552,6.35274216 L10.1568683,6.35274216 L10.1568683,3.2148528 L0,3.2148528 Z" id="Fill-1" fill="#FFFFFF" mask="url(#mask-2)"></path>
                </g>
            </g>
        </g>
    </g>
</svg>